<mxfile host="app.diagrams.net" modified="2021-07-02T19:42:37.200Z" agent="5.0 (Windows NT 10.0; Win64; x64) AppleWebKit/537.36 (KHTML, like Gecko) Chrome/91.0.4472.124 Safari/537.36" etag="SQencKPssVkSNj7JFU5c" version="14.6.6" type="github">
  <diagram id="ayAXbetKZfTn56K7Ly4m" name="Page-1">
    <mxGraphModel dx="1422" dy="762" grid="1" gridSize="10" guides="1" tooltips="1" connect="1" arrows="1" fold="1" page="1" pageScale="1" pageWidth="827" pageHeight="1169" math="0" shadow="0">
      <root>
        <mxCell id="0" />
        <mxCell id="1" parent="0" />
        <mxCell id="Q5VdDlsGaHXyvONEkWbe-1" value="" style="rounded=0;whiteSpace=wrap;html=1;" parent="1" vertex="1">
          <mxGeometry x="55" y="40" width="440" height="80" as="geometry" />
        </mxCell>
        <mxCell id="Q5VdDlsGaHXyvONEkWbe-7" value="Gateway" style="rounded=0;whiteSpace=wrap;html=1;" parent="1" vertex="1">
          <mxGeometry x="55" y="233" width="440" height="40" as="geometry" />
        </mxCell>
        <mxCell id="Q5VdDlsGaHXyvONEkWbe-10" value="" style="endArrow=classic;startArrow=classic;html=1;shadow=0;strokeColor=#000000;entryX=0.5;entryY=1;entryDx=0;entryDy=0;exitX=0.25;exitY=0;exitDx=0;exitDy=0;endSize=8;startSize=8;strokeWidth=3;" parent="1" source="Q5VdDlsGaHXyvONEkWbe-3" target="Q5VdDlsGaHXyvONEkWbe-7" edge="1">
          <mxGeometry width="50" height="50" relative="1" as="geometry">
            <mxPoint x="430" y="300" as="sourcePoint" />
            <mxPoint x="440" y="370" as="targetPoint" />
          </mxGeometry>
        </mxCell>
        <mxCell id="Q5VdDlsGaHXyvONEkWbe-11" value="" style="endArrow=classic;startArrow=classic;html=1;shadow=0;startSize=8;endSize=8;strokeColor=#000000;strokeWidth=3;exitX=0.5;exitY=0;exitDx=0;exitDy=0;entryX=0.5;entryY=1;entryDx=0;entryDy=0;" parent="1" source="Q5VdDlsGaHXyvONEkWbe-7" target="Q5VdDlsGaHXyvONEkWbe-1" edge="1">
          <mxGeometry width="50" height="50" relative="1" as="geometry">
            <mxPoint x="379" y="170" as="sourcePoint" />
            <mxPoint x="429" y="120" as="targetPoint" />
          </mxGeometry>
        </mxCell>
        <mxCell id="Q5VdDlsGaHXyvONEkWbe-55" value="" style="verticalLabelPosition=bottom;verticalAlign=top;html=1;shape=mxgraph.flowchart.parallel_mode;pointerEvents=1" parent="1" vertex="1">
          <mxGeometry x="303" y="760" width="140" height="40" as="geometry" />
        </mxCell>
        <mxCell id="Q5VdDlsGaHXyvONEkWbe-56" value="" style="endArrow=classic;html=1;shadow=0;startSize=4;endSize=4;strokeColor=#000000;strokeWidth=2;exitX=0.5;exitY=1;exitDx=0;exitDy=0;entryX=0.5;entryY=0;entryDx=0;entryDy=0;entryPerimeter=0;" parent="1" source="Q5VdDlsGaHXyvONEkWbe-3" target="Q5VdDlsGaHXyvONEkWbe-55" edge="1">
          <mxGeometry relative="1" as="geometry">
            <mxPoint x="360" y="650" as="sourcePoint" />
            <mxPoint x="460" y="650" as="targetPoint" />
          </mxGeometry>
        </mxCell>
        <mxCell id="Q5VdDlsGaHXyvONEkWbe-57" value="" style="shape=message;html=1;outlineConnect=0;" parent="Q5VdDlsGaHXyvONEkWbe-56" vertex="1">
          <mxGeometry width="20" height="14" relative="1" as="geometry">
            <mxPoint x="-10" y="-7" as="offset" />
          </mxGeometry>
        </mxCell>
        <mxCell id="Q5VdDlsGaHXyvONEkWbe-58" value="" style="endArrow=classic;html=1;shadow=0;startSize=4;endSize=4;strokeColor=#000000;strokeWidth=2;exitX=0.5;exitY=1;exitDx=0;exitDy=0;exitPerimeter=0;entryX=0.5;entryY=0;entryDx=0;entryDy=0;" parent="1" source="Q5VdDlsGaHXyvONEkWbe-55" target="Q5VdDlsGaHXyvONEkWbe-51" edge="1">
          <mxGeometry relative="1" as="geometry">
            <mxPoint x="360" y="750" as="sourcePoint" />
            <mxPoint x="460" y="750" as="targetPoint" />
          </mxGeometry>
        </mxCell>
        <mxCell id="Q5VdDlsGaHXyvONEkWbe-59" value="" style="shape=message;html=1;outlineConnect=0;" parent="Q5VdDlsGaHXyvONEkWbe-58" vertex="1">
          <mxGeometry width="20" height="14" relative="1" as="geometry">
            <mxPoint x="-10" y="-7" as="offset" />
          </mxGeometry>
        </mxCell>
        <mxCell id="pgtfqBvZf05g2Nl97JM0-1" value="" style="swimlane;startSize=0;" vertex="1" parent="1">
          <mxGeometry x="640" y="218" width="70" height="70" as="geometry" />
        </mxCell>
        <mxCell id="pgtfqBvZf05g2Nl97JM0-2" value="Brique SecuritÃ©" style="text;html=1;strokeColor=none;fillColor=none;align=center;verticalAlign=middle;whiteSpace=wrap;rounded=0;" vertex="1" parent="pgtfqBvZf05g2Nl97JM0-1">
          <mxGeometry x="10" y="15.769999999999982" width="40" height="20" as="geometry" />
        </mxCell>
        <mxCell id="pgtfqBvZf05g2Nl97JM0-4" value="" style="endArrow=classic;startArrow=classic;html=1;entryX=0.5;entryY=1;entryDx=0;entryDy=0;exitX=0.526;exitY=0.02;exitDx=0;exitDy=0;exitPerimeter=0;" edge="1" parent="1" source="pgtfqBvZf05g2Nl97JM0-14" target="pgtfqBvZf05g2Nl97JM0-1">
          <mxGeometry width="50" height="50" relative="1" as="geometry">
            <mxPoint x="675" y="410" as="sourcePoint" />
            <mxPoint x="440" y="330" as="targetPoint" />
          </mxGeometry>
        </mxCell>
        <mxCell id="pgtfqBvZf05g2Nl97JM0-5" value="" style="endArrow=classic;startArrow=classic;html=1;entryX=1;entryY=0.5;entryDx=0;entryDy=0;exitX=0;exitY=0.5;exitDx=0;exitDy=0;" edge="1" parent="1" source="pgtfqBvZf05g2Nl97JM0-1" target="Q5VdDlsGaHXyvONEkWbe-7">
          <mxGeometry width="50" height="50" relative="1" as="geometry">
            <mxPoint x="390" y="380" as="sourcePoint" />
            <mxPoint x="440" y="330" as="targetPoint" />
          </mxGeometry>
        </mxCell>
        <mxCell id="pgtfqBvZf05g2Nl97JM0-14" value="" style="aspect=fixed;html=1;points=[];align=center;image;fontSize=12;image=img/lib/mscae/Azure_Database_for_PostgreSQL_servers.svg;" vertex="1" parent="1">
          <mxGeometry x="656" y="320" width="38" height="50" as="geometry" />
        </mxCell>
        <mxCell id="pgtfqBvZf05g2Nl97JM0-15" value="" style="dashed=0;outlineConnect=0;html=1;align=center;labelPosition=center;verticalLabelPosition=bottom;verticalAlign=top;shape=mxgraph.weblogos.android;fillColor=#A4CA39;strokeColor=none" vertex="1" parent="1">
          <mxGeometry x="107.4" y="50" width="37.6" height="60" as="geometry" />
        </mxCell>
        <mxCell id="pgtfqBvZf05g2Nl97JM0-16" value="" style="dashed=0;outlineConnect=0;html=1;align=center;labelPosition=center;verticalLabelPosition=bottom;verticalAlign=top;shape=mxgraph.weblogos.apple_classic" vertex="1" parent="1">
          <mxGeometry x="215" y="52" width="50" height="50" as="geometry" />
        </mxCell>
        <mxCell id="pgtfqBvZf05g2Nl97JM0-18" value="" style="aspect=fixed;html=1;points=[];align=center;image;fontSize=12;image=img/lib/mscae/CustomDomain.svg;" vertex="1" parent="1">
          <mxGeometry x="354" y="56" width="50" height="42" as="geometry" />
        </mxCell>
        <mxCell id="pgtfqBvZf05g2Nl97JM0-20" value="" style="group" vertex="1" connectable="0" parent="1">
          <mxGeometry x="30" y="430" width="538" height="290" as="geometry" />
        </mxCell>
        <mxCell id="Q5VdDlsGaHXyvONEkWbe-42" value="" style="group" parent="pgtfqBvZf05g2Nl97JM0-20" vertex="1" connectable="0">
          <mxGeometry x="148" width="390" height="290" as="geometry" />
        </mxCell>
        <mxCell id="Q5VdDlsGaHXyvONEkWbe-29" value="" style="group" parent="Q5VdDlsGaHXyvONEkWbe-42" vertex="1" connectable="0">
          <mxGeometry width="390" height="290" as="geometry" />
        </mxCell>
        <mxCell id="Q5VdDlsGaHXyvONEkWbe-3" value="" style="rounded=0;whiteSpace=wrap;html=1;" parent="Q5VdDlsGaHXyvONEkWbe-29" vertex="1">
          <mxGeometry width="390" height="290" as="geometry" />
        </mxCell>
        <mxCell id="Q5VdDlsGaHXyvONEkWbe-41" value="" style="endArrow=classic;startArrow=classic;html=1;shadow=0;startSize=4;endSize=4;strokeColor=#000000;strokeWidth=2;entryX=0.5;entryY=-0.1;entryDx=0;entryDy=0;entryPerimeter=0;exitX=0.5;exitY=1;exitDx=0;exitDy=0;" parent="Q5VdDlsGaHXyvONEkWbe-29" target="pgtfqBvZf05g2Nl97JM0-12" edge="1">
          <mxGeometry width="50" height="50" relative="1" as="geometry">
            <mxPoint x="325" y="140" as="sourcePoint" />
            <mxPoint x="326" y="200" as="targetPoint" />
          </mxGeometry>
        </mxCell>
        <mxCell id="Q5VdDlsGaHXyvONEkWbe-17" value="" style="group" parent="Q5VdDlsGaHXyvONEkWbe-29" vertex="1" connectable="0">
          <mxGeometry x="22" y="18.85" width="70" height="121.15" as="geometry" />
        </mxCell>
        <mxCell id="Q5VdDlsGaHXyvONEkWbe-18" value="" style="swimlane;startSize=0;" parent="Q5VdDlsGaHXyvONEkWbe-17" vertex="1">
          <mxGeometry width="70" height="121.14999999999999" as="geometry" />
        </mxCell>
        <mxCell id="pgtfqBvZf05g2Nl97JM0-6" value="" style="aspect=fixed;html=1;points=[];align=center;image;fontSize=12;image=img/lib/mscae/Cache_Redis_Product.svg;" vertex="1" parent="Q5VdDlsGaHXyvONEkWbe-18">
          <mxGeometry x="9.05" y="81.58600611450807" width="47.09798846581435" height="39.56399388549195" as="geometry" />
        </mxCell>
        <mxCell id="Q5VdDlsGaHXyvONEkWbe-20" value="Service Client" style="text;html=1;strokeColor=none;fillColor=none;align=center;verticalAlign=middle;whiteSpace=wrap;rounded=0;" parent="Q5VdDlsGaHXyvONEkWbe-17" vertex="1">
          <mxGeometry x="10" y="20.39650152862702" width="40" height="13.597667685751347" as="geometry" />
        </mxCell>
        <mxCell id="pgtfqBvZf05g2Nl97JM0-9" value="" style="group" vertex="1" connectable="0" parent="Q5VdDlsGaHXyvONEkWbe-29">
          <mxGeometry x="160" y="18.85" width="70" height="121.15" as="geometry" />
        </mxCell>
        <mxCell id="Q5VdDlsGaHXyvONEkWbe-21" value="" style="group" parent="pgtfqBvZf05g2Nl97JM0-9" vertex="1" connectable="0">
          <mxGeometry width="70" height="121.15" as="geometry" />
        </mxCell>
        <mxCell id="Q5VdDlsGaHXyvONEkWbe-22" value="" style="swimlane;startSize=0;" parent="Q5VdDlsGaHXyvONEkWbe-21" vertex="1">
          <mxGeometry width="70" height="120" as="geometry" />
        </mxCell>
        <mxCell id="Q5VdDlsGaHXyvONEkWbe-24" value="Service&amp;nbsp; Mobile Monnaie" style="text;html=1;strokeColor=none;fillColor=none;align=center;verticalAlign=middle;whiteSpace=wrap;rounded=0;" parent="Q5VdDlsGaHXyvONEkWbe-21" vertex="1">
          <mxGeometry x="10" y="24.23" width="40" height="16.153333333333332" as="geometry" />
        </mxCell>
        <mxCell id="pgtfqBvZf05g2Nl97JM0-8" value="" style="aspect=fixed;html=1;points=[];align=center;image;fontSize=12;image=img/lib/mscae/Cache_Redis_Product.svg;" vertex="1" parent="pgtfqBvZf05g2Nl97JM0-9">
          <mxGeometry x="7.030000000000001" y="74.15" width="55.95" height="47" as="geometry" />
        </mxCell>
        <mxCell id="pgtfqBvZf05g2Nl97JM0-10" value="" style="group" vertex="1" connectable="0" parent="Q5VdDlsGaHXyvONEkWbe-29">
          <mxGeometry x="290" y="18.85" width="70" height="121.15" as="geometry" />
        </mxCell>
        <mxCell id="Q5VdDlsGaHXyvONEkWbe-25" value="" style="group" parent="pgtfqBvZf05g2Nl97JM0-10" vertex="1" connectable="0">
          <mxGeometry width="70" height="121.15" as="geometry" />
        </mxCell>
        <mxCell id="Q5VdDlsGaHXyvONEkWbe-26" value="" style="swimlane;startSize=0;" parent="Q5VdDlsGaHXyvONEkWbe-25" vertex="1">
          <mxGeometry width="70" height="120" as="geometry" />
        </mxCell>
        <mxCell id="Q5VdDlsGaHXyvONEkWbe-28" value="Payment Service Provider" style="text;html=1;strokeColor=none;fillColor=none;align=center;verticalAlign=middle;whiteSpace=wrap;rounded=0;" parent="Q5VdDlsGaHXyvONEkWbe-25" vertex="1">
          <mxGeometry x="10" y="24.23" width="40" height="16.153333333333332" as="geometry" />
        </mxCell>
        <mxCell id="pgtfqBvZf05g2Nl97JM0-7" value="" style="aspect=fixed;html=1;points=[];align=center;image;fontSize=12;image=img/lib/mscae/Cache_Redis_Product.svg;" vertex="1" parent="pgtfqBvZf05g2Nl97JM0-10">
          <mxGeometry x="6" y="71.15" width="55.95" height="47" as="geometry" />
        </mxCell>
        <mxCell id="pgtfqBvZf05g2Nl97JM0-11" value="" style="aspect=fixed;html=1;points=[];align=center;image;fontSize=12;image=img/lib/mscae/Azure_Database_for_PostgreSQL_servers.svg;" vertex="1" parent="Q5VdDlsGaHXyvONEkWbe-29">
          <mxGeometry x="32" y="200" width="38" height="50" as="geometry" />
        </mxCell>
        <mxCell id="pgtfqBvZf05g2Nl97JM0-13" value="" style="aspect=fixed;html=1;points=[];align=center;image;fontSize=12;image=img/lib/mscae/Azure_Database_for_PostgreSQL_servers.svg;" vertex="1" parent="Q5VdDlsGaHXyvONEkWbe-29">
          <mxGeometry x="176" y="200" width="38" height="50" as="geometry" />
        </mxCell>
        <mxCell id="pgtfqBvZf05g2Nl97JM0-12" value="" style="aspect=fixed;html=1;points=[];align=center;image;fontSize=12;image=img/lib/mscae/Azure_Database_for_PostgreSQL_servers.svg;" vertex="1" parent="Q5VdDlsGaHXyvONEkWbe-29">
          <mxGeometry x="306" y="200" width="38" height="50" as="geometry" />
        </mxCell>
        <mxCell id="Q5VdDlsGaHXyvONEkWbe-40" value="" style="endArrow=classic;startArrow=classic;html=1;shadow=0;startSize=4;endSize=4;strokeColor=#000000;strokeWidth=2;exitX=0.5;exitY=1;exitDx=0;exitDy=0;" parent="Q5VdDlsGaHXyvONEkWbe-42" edge="1">
          <mxGeometry width="50" height="50" relative="1" as="geometry">
            <mxPoint x="195" y="140" as="sourcePoint" />
            <mxPoint x="195" y="200" as="targetPoint" />
          </mxGeometry>
        </mxCell>
        <mxCell id="Q5VdDlsGaHXyvONEkWbe-39" value="" style="endArrow=classic;startArrow=classic;html=1;shadow=0;startSize=4;endSize=4;strokeColor=#000000;strokeWidth=2;exitX=0.41;exitY=1.111;exitDx=0;exitDy=0;exitPerimeter=0;entryX=0.5;entryY=0;entryDx=0;entryDy=0;entryPerimeter=0;" parent="Q5VdDlsGaHXyvONEkWbe-42" source="pgtfqBvZf05g2Nl97JM0-6" edge="1">
          <mxGeometry width="50" height="50" relative="1" as="geometry">
            <mxPoint x="55" y="170" as="sourcePoint" />
            <mxPoint x="51" y="200" as="targetPoint" />
          </mxGeometry>
        </mxCell>
        <mxCell id="pgtfqBvZf05g2Nl97JM0-19" value="" style="group" vertex="1" connectable="0" parent="pgtfqBvZf05g2Nl97JM0-20">
          <mxGeometry y="115" width="140" height="40" as="geometry" />
        </mxCell>
        <mxCell id="Q5VdDlsGaHXyvONEkWbe-30" value="" style="verticalLabelPosition=bottom;verticalAlign=top;html=1;shape=mxgraph.flowchart.parallel_mode;pointerEvents=1" parent="pgtfqBvZf05g2Nl97JM0-19" vertex="1">
          <mxGeometry width="140" height="40" as="geometry" />
        </mxCell>
        <mxCell id="Q5VdDlsGaHXyvONEkWbe-32" value="" style="endArrow=classic;html=1;shadow=0;startSize=4;endSize=4;strokeColor=#000000;strokeWidth=2;exitX=0.5;exitY=1;exitDx=0;exitDy=0;exitPerimeter=0;entryX=0;entryY=0.75;entryDx=0;entryDy=0;" parent="pgtfqBvZf05g2Nl97JM0-20" source="Q5VdDlsGaHXyvONEkWbe-30" target="Q5VdDlsGaHXyvONEkWbe-3" edge="1">
          <mxGeometry relative="1" as="geometry">
            <mxPoint x="110" y="410" as="sourcePoint" />
            <mxPoint x="210" y="410" as="targetPoint" />
          </mxGeometry>
        </mxCell>
        <mxCell id="Q5VdDlsGaHXyvONEkWbe-33" value="" style="shape=message;html=1;outlineConnect=0;" parent="Q5VdDlsGaHXyvONEkWbe-32" vertex="1">
          <mxGeometry width="20" height="14" relative="1" as="geometry">
            <mxPoint x="-10" y="-7" as="offset" />
          </mxGeometry>
        </mxCell>
        <mxCell id="Q5VdDlsGaHXyvONEkWbe-34" value="" style="endArrow=classic;html=1;shadow=0;startSize=4;endSize=4;strokeColor=#000000;strokeWidth=2;exitX=0;exitY=0.25;exitDx=0;exitDy=0;entryX=0.5;entryY=0;entryDx=0;entryDy=0;entryPerimeter=0;" parent="pgtfqBvZf05g2Nl97JM0-20" source="Q5VdDlsGaHXyvONEkWbe-3" target="Q5VdDlsGaHXyvONEkWbe-30" edge="1">
          <mxGeometry relative="1" as="geometry">
            <mxPoint x="360" y="390" as="sourcePoint" />
            <mxPoint x="150" y="320" as="targetPoint" />
          </mxGeometry>
        </mxCell>
        <mxCell id="Q5VdDlsGaHXyvONEkWbe-35" value="" style="shape=message;html=1;outlineConnect=0;" parent="Q5VdDlsGaHXyvONEkWbe-34" vertex="1">
          <mxGeometry width="20" height="14" relative="1" as="geometry">
            <mxPoint x="-10" y="-7" as="offset" />
          </mxGeometry>
        </mxCell>
        <mxCell id="pgtfqBvZf05g2Nl97JM0-21" value="" style="group" vertex="1" connectable="0" parent="1">
          <mxGeometry x="160" y="840" width="420" height="230" as="geometry" />
        </mxCell>
        <mxCell id="Q5VdDlsGaHXyvONEkWbe-51" value="" style="rounded=0;whiteSpace=wrap;html=1;" parent="pgtfqBvZf05g2Nl97JM0-21" vertex="1">
          <mxGeometry width="420" height="230" as="geometry" />
        </mxCell>
        <mxCell id="Q5VdDlsGaHXyvONEkWbe-53" value="" style="group" parent="pgtfqBvZf05g2Nl97JM0-21" vertex="1" connectable="0">
          <mxGeometry x="20.80000000000001" y="58" width="81" height="72" as="geometry" />
        </mxCell>
        <mxCell id="Q5VdDlsGaHXyvONEkWbe-43" value="" style="swimlane;startSize=0;" parent="Q5VdDlsGaHXyvONEkWbe-53" vertex="1">
          <mxGeometry width="81" height="72" as="geometry" />
        </mxCell>
        <mxCell id="Q5VdDlsGaHXyvONEkWbe-46" value="SMS Service" style="text;html=1;strokeColor=none;fillColor=none;align=center;verticalAlign=middle;whiteSpace=wrap;rounded=0;" parent="Q5VdDlsGaHXyvONEkWbe-53" vertex="1">
          <mxGeometry x="15" y="18.94736842105263" width="40" height="12.631578947368421" as="geometry" />
        </mxCell>
        <mxCell id="Q5VdDlsGaHXyvONEkWbe-47" value="" style="swimlane;startSize=0;" parent="pgtfqBvZf05g2Nl97JM0-21" vertex="1">
          <mxGeometry x="130" y="59" width="70" height="70" as="geometry" />
        </mxCell>
        <mxCell id="Q5VdDlsGaHXyvONEkWbe-48" value="Mail Service" style="text;html=1;strokeColor=none;fillColor=none;align=center;verticalAlign=middle;whiteSpace=wrap;rounded=0;" parent="Q5VdDlsGaHXyvONEkWbe-47" vertex="1">
          <mxGeometry x="10" y="15.769999999999982" width="40" height="20" as="geometry" />
        </mxCell>
        <mxCell id="Q5VdDlsGaHXyvONEkWbe-60" value="" style="swimlane;startSize=0;" parent="pgtfqBvZf05g2Nl97JM0-21" vertex="1">
          <mxGeometry x="229" y="50" width="70" height="70" as="geometry" />
        </mxCell>
        <mxCell id="Q5VdDlsGaHXyvONEkWbe-61" value="Service Historic" style="text;html=1;strokeColor=none;fillColor=none;align=center;verticalAlign=middle;whiteSpace=wrap;rounded=0;" parent="Q5VdDlsGaHXyvONEkWbe-60" vertex="1">
          <mxGeometry x="10" y="15.769999999999982" width="40" height="20" as="geometry" />
        </mxCell>
        <mxCell id="Q5VdDlsGaHXyvONEkWbe-62" value="&lt;font style=&quot;font-size: 9px&quot;&gt;MongoDb&lt;/font&gt;" style="shape=cylinder3;whiteSpace=wrap;html=1;boundedLbl=1;backgroundOutline=1;size=15;" parent="pgtfqBvZf05g2Nl97JM0-21" vertex="1">
          <mxGeometry x="241.5" y="152" width="45" height="60" as="geometry" />
        </mxCell>
        <mxCell id="Q5VdDlsGaHXyvONEkWbe-63" value="" style="endArrow=classic;startArrow=classic;html=1;shadow=0;startSize=4;endSize=4;strokeColor=#000000;strokeWidth=2;entryX=0.5;entryY=1;entryDx=0;entryDy=0;exitX=0.5;exitY=0;exitDx=0;exitDy=0;exitPerimeter=0;" parent="pgtfqBvZf05g2Nl97JM0-21" source="Q5VdDlsGaHXyvONEkWbe-62" target="Q5VdDlsGaHXyvONEkWbe-60" edge="1">
          <mxGeometry width="50" height="50" relative="1" as="geometry">
            <mxPoint x="260" y="152" as="sourcePoint" />
            <mxPoint x="310" y="102" as="targetPoint" />
          </mxGeometry>
        </mxCell>
        <mxCell id="pgtfqBvZf05g2Nl97JM0-17" value="" style="dashed=0;outlineConnect=0;html=1;align=center;labelPosition=center;verticalLabelPosition=bottom;verticalAlign=top;shape=mxgraph.weblogos.sms;fillColor=#48B921;strokeColor=none" vertex="1" parent="pgtfqBvZf05g2Nl97JM0-21">
          <mxGeometry x="52.599999999999994" y="18" width="37.4" height="40" as="geometry" />
        </mxCell>
      </root>
    </mxGraphModel>
  </diagram>
</mxfile>
